<svg width="0" height="0" class="hidden">
	<symbol fill="none" xmlns="http://www.w3.org/2000/svg" viewBox="0 0 24 24" id="check">
		<path fill-rule="evenodd" clip-rule="evenodd" d="M16.3344 2.75024H7.6654C4.6444 2.75024 2.7504 4.88924 2.7504 7.91624V16.0842C2.7504 19.1112 4.6354 21.2502 7.6654 21.2502H16.3334C19.3644 21.2502 21.2504 19.1112 21.2504 16.0842V7.91624C21.2504 4.88924 19.3644 2.75024 16.3344 2.75024Z" stroke="#84DF88" stroke-width="1.5" stroke-linecap="round" stroke-linejoin="round"/>
		<path d="M8.43991 12.0002L10.8139 14.3732L15.5599 9.6272" stroke="#84DF88" stroke-width="1.5" stroke-linecap="round" stroke-linejoin="round"/>
	</symbol>
	<symbol fill="none" xmlns="http://www.w3.org/2000/svg" viewBox="0 0 600 371" id="work">
		<path opacity="0.5" d="M609.595 371.477C609.552 371.563 609.488 371.649 609.445 371.735C609.103 372.359 608.74 372.982 608.376 373.627L48.8217 373.455C48.8217 373.455 48.2873 372.853 47.3041 371.671C47.24 371.606 47.1972 371.542 47.1331 371.456C44.6322 368.446 39.6091 362.082 33.7096 353.138C18.0845 329.359 -3.5684 287.262 0.0867219 240.542C1.11272 227.363 4.14797 213.796 9.91922 200.187C27.404 158.885 79.5376 131.043 126.52 130.484C144.71 130.269 162.109 134.139 176.43 142.889C178.974 144.437 182.159 145.641 185.878 146.458C188.999 147.146 192.504 147.576 196.309 147.705C226.811 148.78 276.444 131.494 305.878 87.9781C321.503 64.8656 345.507 49.7511 373.081 41.8606C374.363 41.4951 375.667 41.1511 376.949 40.8071C383.212 39.1946 389.667 37.9261 396.208 37.0446C397.384 36.8941 398.581 36.7436 399.756 36.5931C428.848 33.1961 460.013 36.7006 488.612 46.4186C492.374 47.6871 496.094 49.0846 499.77 50.5681C553.571 72.4766 595.423 117.218 591.747 179.697C591.597 182.17 591.383 184.664 591.084 187.201C590.528 192.017 589.716 196.919 588.626 201.928C587.985 204.874 587.237 207.862 586.382 210.894C564.216 290.121 652.836 293.69 609.595 371.477Z" fill="#DCEAFF"></path>
		<path d="M609.595 371.477L174.058 371.52L177.82 240.585V205.046H194.108V177.246H226.598V200.832H236.516V157.23H238.674V154.177H239.059V157.23H246.904V154.177H247.289V157.23H258.382V154.177H258.767V157.23H265.757V154.177H266.141V157.23H269.006V197.951H279.971V191.35L292.903 191.415V180.751H295.511V178.644H295.853V180.751H305.835H307.823V178.644H308.165V180.751H310.58V201.971H325.97V209.776H334.541V205.239H342.471V187.244H346.426V178.837H347.024V187.244H356.515V171.506H357.455V187.244H363.74V187.029V185.029V183.137V179.998V177.999V174.86V172.86V169.721V167.55V164.411V161.637V158.498V156.413H365.599V154.069H365.898V156.413H379.749V154.069H380.049V156.413H382.571V172.86H384.345H384.324V169.721H384.345V167.55H384.324V164.411H384.345V162.239H384.324V159.1H384.345H401.146H404.031C404.181 159.186 404.331 159.272 404.48 159.358V180.342H407.58V177.311H443.062V200.896H453.899V157.23H456.251V154.177H456.678V157.23H465.228V154.177H465.656V157.23H477.775V154.177H478.203V157.23H485.834V154.177H486.261V157.23H489.403V197.951H501.373V191.35L515.481 191.415V180.751H518.324V178.644H518.708V180.751H529.61H531.79V178.644H532.175V180.751H534.804V201.971H551.604V209.776H560.945V205.239H569.602V187.244H573.92V178.837H574.583V187.244H584.949V171.506H585.975V187.244H591.063C590.507 192.06 589.695 196.962 588.605 201.971C587.963 204.917 587.215 207.905 586.36 210.937C564.216 290.121 652.836 293.69 609.595 371.477Z" fill="#DFEBFA"></path>
		<path d="M499.77 50.6112V371.499H488.612V46.4402C492.396 47.7302 496.115 49.1062 499.77 50.6112Z" fill="#AFCDFB"></path>
		<path d="M185.878 146.48V371.692H47.3041C47.24 371.628 47.1972 371.563 47.1331 371.477C44.6322 368.467 39.6091 362.103 33.7096 353.159C18.0845 329.38 -3.5684 287.283 0.086722 240.564C1.11272 227.384 4.14797 213.818 9.91922 200.208C27.404 158.885 79.5376 131.043 126.52 130.484C144.539 130.677 161.703 134.59 175.96 142.889C178.632 144.459 181.988 145.663 185.878 146.48Z" fill="#CEE1FD"></path>
		<path d="M399.778 36.6145V76.1315C399.778 79.206 399.03 81.7215 398.111 81.7215H397.875C396.956 81.7215 396.208 79.206 396.208 76.1315V37.066C397.405 36.894 398.581 36.7435 399.778 36.6145Z" fill="#9FC1F4"></path>
		<path d="M397.063 72.2185C384.11 72.2185 373.615 83.377 373.615 97.1585H420.512C420.512 83.377 410.016 72.2185 397.063 72.2185Z" fill="#FFC864"></path>
		<path d="M398.944 72.5194C398.26 72.3689 397.576 72.3044 396.892 72.3044C388.449 72.3044 381.609 83.4415 381.609 97.1585H385.735C385.713 84.5595 391.484 74.1534 398.944 72.5194Z" fill="#FFDD90"></path>
		<path d="M551.476 334.712C551.476 334.712 545.235 327.38 551.091 322.736C551.091 322.736 555.366 320.135 558.851 320.35C558.851 320.35 553.913 328.692 555.516 329.509C557.119 330.347 560.347 319.834 560.347 319.834C560.347 319.834 570.072 318.888 573.215 320.393C573.215 320.393 564.9 327.23 566.652 327.638C568.405 328.047 577.383 321.317 577.383 321.317C577.383 321.317 586.446 322.865 585.954 328.434C585.462 333.981 582.342 335.701 580.974 335.55C579.606 335.4 571.569 332.325 571.398 333.443C571.227 334.561 576.057 338.259 579.435 338.431C579.435 338.431 573.044 345.505 568.811 343.462C564.558 341.42 564.216 338.173 561.565 336.969C558.915 335.744 556.67 335.765 557.76 336.991C558.851 338.238 563.639 339.442 565.156 342.129C566.674 344.817 568.02 346.644 563.639 345.978C559.257 345.311 552.117 342.086 551.797 338.388C551.476 334.712 551.476 334.712 551.476 334.712Z" fill="#58C65C"></path>
		<path d="M581.508 328.585C581.508 328.585 556.905 327.639 551.476 334.712C551.476 334.712 550.279 338.324 546.581 341.635L546.004 343.205C546.004 343.205 550.258 338.69 551.797 338.41C551.775 338.41 549.403 329.638 581.508 328.585Z" fill="#58C65C"></path>
		<path d="M546.56 341.614C546.56 341.614 541.28 345.548 540.917 352.557L541.879 352.643C541.879 352.643 543.567 345.376 546.603 342.538C549.659 339.722 546.56 341.614 546.56 341.614Z" fill="#58C65C"></path>
		<path d="M529.652 325.51C529.652 325.51 539.57 319.92 534.953 312.33C534.953 312.33 531.255 307.665 527.28 306.482C527.28 306.482 529.396 317.791 527.28 318.071C525.164 318.329 525.826 305.3 525.826 305.3C525.826 305.3 515.374 300.247 511.27 300.634C511.27 300.634 517.746 311.685 515.63 311.406C513.514 311.126 506.225 299.968 506.225 299.968C506.225 299.968 495.516 297.968 493.785 304.354C492.075 310.739 494.854 313.943 496.436 314.33C498.017 314.738 508.213 314.588 507.957 315.921C507.7 317.254 500.817 319.382 496.97 318.178C496.97 318.178 501.202 328.692 506.76 328.154C512.317 327.617 514.049 324.155 517.469 323.897C520.91 323.639 523.432 324.564 521.701 325.488C519.991 326.413 514.155 325.789 511.377 328.176C508.598 330.562 506.354 332.024 511.505 333.078C516.656 334.153 525.933 333.486 527.771 329.487C529.652 325.51 529.652 325.51 529.652 325.51Z" fill="#58C65C"></path>
		<path d="M498.68 306.332C498.68 306.332 526.467 315.384 529.652 325.489C529.652 325.489 529.524 330.004 532.303 335.207V337.206C532.303 337.206 529.396 330.412 527.814 329.488C527.793 329.488 534.013 320.716 498.68 306.332Z" fill="#58C65C"></path>
		<path d="M532.303 335.207C532.303 335.207 536.578 341.743 534.141 349.719L533.03 349.418C533.03 349.418 534.098 340.646 531.854 336.217C529.631 331.831 532.303 335.207 532.303 335.207Z" fill="#58C65C"></path>
		<path d="M545.449 317.792C545.449 317.792 532.367 310.417 538.48 300.42C538.48 300.42 543.375 294.271 548.591 292.701C548.591 292.701 545.79 307.622 548.591 307.966C551.391 308.31 550.514 291.132 550.514 291.132C550.514 291.132 564.301 284.467 569.709 284.983C569.709 284.983 561.159 299.538 563.959 299.194C566.759 298.85 576.335 284.101 576.335 284.101C576.335 284.101 590.464 281.478 592.73 289.885C594.996 298.313 591.341 302.527 589.246 303.043C587.151 303.559 573.728 303.387 574.07 305.15C574.412 306.913 583.496 309.708 588.54 308.138C588.54 308.138 582.962 322.006 575.63 321.296C568.298 320.587 566.033 316.029 561.501 315.685C556.97 315.341 553.656 316.566 555.922 317.792C558.188 319.017 565.862 318.2 569.538 321.318C573.215 324.435 576.164 326.37 569.367 327.789C562.57 329.187 550.343 328.305 547.907 323.059C545.47 317.813 545.449 317.792 545.449 317.792Z" fill="#84DF88"></path>
		<path d="M586.253 292.529C586.253 292.529 549.617 304.462 545.427 317.792C545.427 317.792 545.598 323.747 541.943 330.606V333.229C541.943 333.229 545.791 324.285 547.864 323.059C547.885 323.059 539.677 311.471 586.253 292.529Z" fill="#84DF88"></path>
		<path d="M541.964 330.606C541.964 330.606 536.321 339.227 539.528 349.741L540.981 349.354C540.981 349.354 539.57 337.787 542.52 331.96C545.47 326.134 541.964 330.606 541.964 330.606Z" fill="#84DF88"></path>
		<path d="M545 372.509C559.15 372.509 570.628 360.963 570.628 346.73H519.371C519.371 360.963 530.849 372.509 545 372.509Z" fill="#9FC1F4"></path>
		<path d="M551.305 372.315C550.258 372.444 549.211 372.509 548.12 372.509C533.97 372.509 522.492 360.963 522.492 346.73H528.862C528.862 359.888 538.651 370.724 551.305 372.315Z" fill="#AFCDFB"></path>
		<path d="M571.227 346.73H518.537V347.526H571.227V346.73Z" fill="#9FC1F4"></path>
		<path d="M425.706 371.241L400.526 266.106L402.279 261.978L427.223 371.241C427.288 371.52 427.074 371.778 426.796 371.778H426.39C426.048 371.778 425.77 371.563 425.706 371.241Z" fill="#77A4E5"></path>
		<path d="M312.055 371.778C311.542 371.778 311.136 371.305 311.221 370.789L318.638 325.574H321.823L312.974 371.004C312.888 371.455 312.504 371.778 312.055 371.778Z" fill="#77A4E5"></path>
		<path d="M383.191 371.778C382.678 371.778 382.272 371.305 382.357 370.789L389.774 325.574H392.959L384.11 371.004C384.024 371.455 383.64 371.778 383.191 371.778Z" fill="#77A4E5"></path>
		<path d="M400.44 325.682H311.862L330.224 209.948H418.802L400.44 325.682Z" fill="#F5FBFF"></path>
		<path d="M407.067 324.779H305.343V328.176H407.067V324.779Z" fill="#77A4E5"></path>
		<path d="M365.3 234.157C365.236 235.081 365.108 235.963 364.894 236.844C363.056 245.122 355.724 251.443 347.452 251.464C338.303 251.486 331.442 243.746 332.147 234.2C332.853 224.654 340.826 216.892 349.995 216.892C351.919 216.892 353.736 217.236 355.403 217.86C356.151 218.139 356.878 218.483 357.562 218.87C359.037 219.709 360.362 220.805 361.474 222.095C362.094 222.805 362.649 223.6 363.141 224.417C363.419 224.89 363.675 225.406 363.911 225.922C364.552 227.363 365.001 228.911 365.214 230.545C365.321 231.362 365.364 232.222 365.364 233.082C365.343 233.426 365.321 233.791 365.3 234.157Z" fill="#BDD1F9"></path>
		<path d="M363.889 225.922L348.713 234.2C348.713 234.2 354.976 223.106 357.541 218.87C359.016 219.709 360.341 220.805 361.453 222.095C362.072 222.805 362.628 223.6 363.12 224.417C363.419 224.912 363.676 225.406 363.889 225.922Z" fill="white"></path>
		<path d="M365.471 223.815L351.62 231.383C351.62 231.383 357.327 221.257 359.678 217.387C361.025 218.161 362.243 219.15 363.248 220.332C363.804 220.977 364.317 221.708 364.766 222.461C365.022 222.891 365.257 223.342 365.471 223.815Z" fill="#FFDD90"></path>
		<path d="M393.387 316.867H320.477L327.851 274.555H400.761L393.387 316.867ZM321.075 316.437H392.959L400.184 274.985H328.3L321.075 316.437Z" fill="#BDD1F9"></path>
		<path d="M389.048 311.062H324.388C324.388 311.062 335.867 304.87 339.009 305.193C342.151 305.515 346.682 308.031 349.589 308.117C352.496 308.203 355.639 299.431 358.888 299.839C362.115 300.248 363.334 308.031 365.022 307.257C366.711 306.483 371.734 306.16 374.62 307.257C377.527 308.353 381.737 303.795 384.281 303.946C386.825 304.118 389.048 311.062 389.048 311.062Z" fill="#FFDD90"></path>
		<path d="M339.928 298.635H327.595L327.701 297.969H340.056L339.928 298.635Z" fill="#FFDD90"></path>
		<path d="M339.693 300.054L327.338 300.032L327.445 299.387H339.8L339.693 300.054Z" fill="#FFDD90"></path>
		<path d="M328.086 289.863H392.746C392.746 289.863 383.426 283.671 380.177 283.993C376.907 284.316 371.52 286.831 368.57 286.917C365.621 287.025 365.535 278.231 362.158 278.64C358.781 279.048 354.848 286.81 353.437 286.057C352.026 285.305 347.11 284.961 343.84 286.057C340.569 287.154 337.919 282.596 335.332 282.746C332.725 282.897 328.086 289.863 328.086 289.863Z" fill="#BDD1F9"></path>
		<path d="M343.433 278.64H331.079L331.186 277.973H343.54L343.433 278.64Z" fill="#BDD1F9"></path>
		<path d="M343.177 280.037H330.822L330.95 279.392H343.284L343.177 280.037Z" fill="#BDD1F9"></path>
		<path d="M332.276 268.664H329.433L331.912 255.291H334.734L332.276 268.664Z" fill="#BDD1F9"></path>
		<path d="M336.145 268.664H333.302L335.225 258.301H338.047L336.145 268.664Z" fill="#BDD1F9"></path>
		<path d="M340.013 268.664H337.171L339.158 257.85H342.001L340.013 268.664Z" fill="#BDD1F9"></path>
		<path d="M343.861 268.664H341.039L342.557 260.451H345.379L343.861 268.664Z" fill="#BDD1F9"></path>
		<path d="M347.73 268.664H344.887L346.511 259.849H349.354L347.73 268.664Z" fill="#BDD1F9"></path>
		<path d="M351.599 268.664H348.756L350.017 261.827H352.86L351.599 268.664Z" fill="#BDD1F9"></path>
		<path d="M370.216 268.664H367.373L369.853 255.291H372.674L370.216 268.664Z" fill="#FFDD90"></path>
		<path d="M374.085 268.664H371.242L373.145 258.301H375.987L374.085 268.664Z" fill="#FFDD90"></path>
		<path d="M377.954 268.664H375.111L377.099 257.85H379.942L377.954 268.664Z" fill="#FFDD90"></path>
		<path d="M381.801 268.664H378.98L380.476 260.451H383.319L381.801 268.664Z" fill="#FFDD90"></path>
		<path d="M385.67 268.664H382.828L384.452 259.849H387.295L385.67 268.664Z" fill="#FFDD90"></path>
		<path d="M389.539 268.664H386.696L387.958 261.827H390.8L389.539 268.664Z" fill="#FFDD90"></path>
		<path d="M383.875 225.019H374.641L374.876 223.75H384.11L383.875 225.019Z" fill="#BDD1F9"></path>
		<path d="M395.204 225.019H385.008L385.243 223.75H395.439L395.204 225.019Z" fill="#BDD1F9"></path>
		<path d="M402.471 225.019H395.973L396.208 223.75H402.706L402.471 225.019Z" fill="#BDD1F9"></path>
		<path d="M408.542 225.019H403.519L403.754 223.75H408.777L408.542 225.019Z" fill="#BDD1F9"></path>
		<path d="M382.87 230.437H373.636L373.871 229.168H383.105L382.87 230.437Z" fill="#BDD1F9"></path>
		<path d="M394.178 230.437H383.982L384.238 229.168H394.413L394.178 230.437Z" fill="#BDD1F9"></path>
		<path d="M401.445 230.437H394.947L395.182 229.168H401.68L401.445 230.437Z" fill="#BDD1F9"></path>
		<path d="M407.516 230.437H402.492L402.749 229.168H407.751L407.516 230.437Z" fill="#BDD1F9"></path>
		<path d="M389.368 222.052H375.197L375.432 220.783H389.603L389.368 222.052Z" fill="#BDD1F9"></path>
		<path d="M398.88 222.052H390.715L390.95 220.783H399.115L398.88 222.052Z" fill="#BDD1F9"></path>
		<path d="M409.097 222.052H400.034L400.269 220.783H409.333L409.097 222.052Z" fill="#BDD1F9"></path>
		<path d="M388.278 227.814H374.128L374.363 226.545H388.513L388.278 227.814Z" fill="#BDD1F9"></path>
		<path d="M397.79 227.814H389.625L389.86 226.545H398.025L397.79 227.814Z" fill="#BDD1F9"></path>
		<path d="M408.007 227.814H398.944L399.179 226.545H408.242L408.007 227.814Z" fill="#BDD1F9"></path>
		<path d="M381.844 235.876H372.61L372.845 234.608H382.079L381.844 235.876Z" fill="#BDD1F9"></path>
		<path d="M393.173 235.876H382.977L383.212 234.608H393.408L393.173 235.876Z" fill="#BDD1F9"></path>
		<path d="M400.441 235.876H393.943L394.178 234.608H400.676L400.441 235.876Z" fill="#BDD1F9"></path>
		<path d="M406.511 235.876H401.488L401.723 234.608H406.746L406.511 235.876Z" fill="#BDD1F9"></path>
		<path d="M387.273 233.253H373.102L373.337 231.985H387.509L387.273 233.253Z" fill="#BDD1F9"></path>
		<path d="M396.785 233.253H388.62L388.855 231.985H397.021L396.785 233.253Z" fill="#BDD1F9"></path>
		<path d="M407.003 233.253H397.94L398.175 231.985H407.238L407.003 233.253Z" fill="#BDD1F9"></path>
		<path d="M380.904 240.972H371.67L371.905 239.682H381.139L380.904 240.972Z" fill="#BDD1F9"></path>
		<path d="M392.211 240.972H382.037L382.272 239.682H392.468L392.211 240.972Z" fill="#BDD1F9"></path>
		<path d="M399.479 240.972H392.981L393.216 239.682H399.735L399.479 240.972Z" fill="#BDD1F9"></path>
		<path d="M405.549 240.972H400.547L400.782 239.682H405.784L405.549 240.972Z" fill="#BDD1F9"></path>
		<path d="M386.312 238.327H372.161L372.396 237.059H386.547L386.312 238.327Z" fill="#BDD1F9"></path>
		<path d="M395.824 238.327H387.658L387.915 237.059H396.08L395.824 238.327Z" fill="#BDD1F9"></path>
		<path d="M406.062 238.327H396.978L397.213 237.059H406.297L406.062 238.327Z" fill="#BDD1F9"></path>
		<path d="M359.892 257.269H355.361L355.489 256.646H359.999L359.892 257.269Z" fill="#BDD1F9"></path>
		<path d="M365.428 257.269H360.448L360.555 256.646H365.557L365.428 257.269Z" fill="#BDD1F9"></path>
		<path d="M359.401 259.935H354.869L354.997 259.312H359.507L359.401 259.935Z" fill="#BDD1F9"></path>
		<path d="M364.937 259.935H359.935L360.063 259.312H365.043L364.937 259.935Z" fill="#BDD1F9"></path>
		<path d="M362.564 255.829H355.638L355.745 255.205H362.692L362.564 255.829Z" fill="#BDD1F9"></path>
		<path d="M367.224 255.829H363.227L363.355 255.205H367.352L367.224 255.829Z" fill="#BDD1F9"></path>
		<path d="M362.051 258.645H355.104L355.232 258.021H362.158L362.051 258.645Z" fill="#BDD1F9"></path>
		<path d="M366.711 258.645H362.714L362.821 258.021H366.818L366.711 258.645Z" fill="#BDD1F9"></path>
		<path d="M396.08 257.269H391.57L391.677 256.646H396.208L396.08 257.269Z" fill="#BDD1F9"></path>
		<path d="M401.637 257.269H396.636L396.764 256.646H401.744L401.637 257.269Z" fill="#BDD1F9"></path>
		<path d="M395.588 259.935H391.078L391.185 259.312H395.695L395.588 259.935Z" fill="#BDD1F9"></path>
		<path d="M401.124 259.935H396.144L396.251 259.312H401.253L401.124 259.935Z" fill="#BDD1F9"></path>
		<path d="M398.773 255.829H391.848L391.955 255.205H398.88L398.773 255.829Z" fill="#BDD1F9"></path>
		<path d="M403.433 255.829H399.436L399.543 255.205H403.54L403.433 255.829Z" fill="#BDD1F9"></path>
		<path d="M398.239 258.645H391.313L391.42 258.021H398.367L398.239 258.645Z" fill="#BDD1F9"></path>
		<path d="M402.899 258.645H398.901L399.03 258.021H403.006L402.899 258.645Z" fill="#BDD1F9"></path>
		<path d="M420.127 370.058C419.977 372.23 416.921 372.251 413.458 371.843C409.995 371.434 410.914 372.316 406.062 372.38C401.21 372.445 399.543 370.832 399.307 370.144C399.094 369.521 401.424 369.005 403.924 368.403C404.245 368.317 404.544 368.252 404.865 368.166C407.687 367.457 409.546 365.328 411.962 363.479C414.249 361.716 417.198 355.374 417.198 355.374L423.825 355.073C423.825 355.073 421.046 360.77 419.999 363.221C419.379 364.662 419.635 366.446 419.913 367.801C420.041 368.532 420.191 369.284 420.127 370.058Z" fill="#FFC864"></path>
		<path d="M413.458 371.864C409.995 371.456 410.914 372.337 406.062 372.402C401.21 372.466 399.543 370.854 399.307 370.166C399.094 369.542 401.424 369.026 403.924 368.424L403.946 368.467C403.946 368.467 407.067 370.144 411.064 369.757C414.313 369.435 417.647 368.059 419.892 367.822C420.041 368.553 420.17 369.327 420.127 370.08C419.977 372.23 416.921 372.251 413.458 371.864Z" fill="#233862"></path>
		<path d="M465.869 370.51C465.72 372.681 462.663 372.703 459.2 372.316C455.738 371.907 456.657 372.789 451.805 372.875C446.952 372.939 445.285 371.348 445.05 370.639C444.836 370.015 447.166 369.499 449.667 368.876C449.988 368.79 450.287 368.725 450.608 368.639C453.429 367.908 455.289 365.801 457.704 363.931C459.991 362.168 457.704 351.783 457.704 351.783L464.993 351.074C464.993 351.074 464.651 359.824 464.651 363.802C464.651 365.371 465.378 366.876 465.634 368.252C465.784 368.983 465.912 369.736 465.869 370.51Z" fill="#FFC864"></path>
		<path d="M459.2 372.316C455.738 371.907 456.657 372.789 451.805 372.875C446.952 372.939 445.285 371.348 445.05 370.639C444.836 370.015 447.166 369.499 449.667 368.876L449.688 368.919C449.688 368.919 452.809 370.596 456.806 370.187C460.055 369.865 463.368 368.489 465.634 368.231C465.784 368.962 465.912 369.736 465.869 370.488C465.698 372.681 462.663 372.724 459.2 372.316Z" fill="#233862"></path>
		<path d="M444.601 190.834C443.34 185.653 445.157 183.223 446.803 181.955C447.572 180.041 448.47 178.665 449.368 178.149C451.014 177.203 453.002 177.096 454.391 177.182C454.028 176.816 453.322 176.666 453.322 176.666C454.177 176.537 456.101 177.397 456.101 177.397C468.071 172.753 469.952 190.49 469.695 194.597C469.439 198.725 469.482 203.562 475.702 206.809C487.586 213.001 471.747 236.328 471.747 236.328C472.047 232.996 456.785 215.43 448.812 210.184C446.867 207.303 446.183 202.251 446.14 201.842C446.482 205.863 447.166 208.12 447.765 209.389C444.174 206.013 443.639 197.951 444.601 190.834Z" fill="#A9453D"></path>
		<path d="M449.325 210.442C449.282 210.464 453.173 212.485 456.101 211.689C458.858 210.937 460.654 207.346 460.611 207.346C459.457 207.11 459.115 205.497 459.136 198.596L458.602 198.703L449.753 200.466C449.753 200.466 449.945 203.261 449.966 205.906C449.966 208.099 449.838 210.206 449.325 210.442Z" fill="#FFC864"></path>
		<path d="M449.753 200.445C449.753 200.445 449.945 203.24 449.966 205.884C454.925 205.734 457.533 201.197 458.602 198.682L449.753 200.445Z" fill="#FFC864"></path>
		<path d="M413.757 358.9C413.33 360.276 414.291 361.673 415.724 361.738L419.186 361.91L422.841 362.017C423.761 362.039 424.637 361.652 425.214 360.921C428.142 357.309 437.12 345.312 442.571 327.854C442.72 327.359 442.891 326.865 443.062 326.37C446.653 315.814 454.134 302.548 458.067 290.551C458.687 288.638 459.264 286.832 459.756 285.133C459.927 284.596 460.077 284.058 460.226 283.521C463.133 273.394 463.967 266.729 464.736 259.634L436.329 259.871C436.308 259.892 430.344 306.655 413.757 358.9Z" fill="#2A4E96"></path>
		<path d="M440.283 243.488C440.348 257.076 438.295 262.924 438.295 262.924C438.295 262.924 450.458 269.137 464.907 264.558C465.078 264.493 475.253 261.612 475.253 261.612C475.018 261.053 473.008 251.959 472.773 251.464C469.717 244.864 468.883 242.112 468.52 240.069C467.857 236.285 467.836 232.372 468.178 228.674C469.054 218.892 471.683 210.786 471.683 210.786C467.75 209.883 464.052 208.292 459.948 206.766C459.008 207.948 456.122 209.174 453.621 209.131C450.736 209.066 449.817 207.819 449.966 206.465C446.888 208.185 444.451 209.797 444.451 209.797C441.844 214.355 436.564 218.784 436.179 225.772C436.094 227.492 440.283 243.101 440.283 243.488Z" fill="white"></path>
		<path d="M464.715 244.993C465.955 246.756 468.327 257.506 474.27 258.86C471.213 251.206 468.905 247.852 468.541 245.487C467.879 241.101 467.857 236.543 468.199 232.265C466.211 228.76 464.736 226.374 464.736 226.374C464.587 225.815 461.594 216.484 460.632 224.826C459.649 233.146 463.326 243.015 464.715 244.993Z" fill="#5F9AA8"></path>
		<path d="M448.107 202.939C448.107 202.939 459.82 203.132 459.842 195.801C459.842 188.469 461.359 183.546 453.878 183.116C446.397 182.686 444.943 185.481 444.345 187.932C443.746 190.361 445.05 202.702 448.107 202.939Z" fill="#FFC864"></path>
		<path d="M448.534 182.922C448.534 182.922 451.74 191.544 456.657 192.812C461.573 194.081 463.71 192.769 463.71 192.769C463.71 192.769 459.927 189.759 459.158 184.492C459.179 184.47 450.95 178.816 448.534 182.922Z" fill="#A9453D"></path>
		<path d="M449.325 183.61C449.325 183.61 446.931 185.524 446.354 187.394C445.777 189.265 445.499 193.113 444.387 192.984C444.387 192.984 441.972 187.136 444.687 183.825C447.572 180.321 449.325 183.61 449.325 183.61Z" fill="#A9453D"></path>
		<path d="M429.66 252.926L424.145 269.89L427.287 271.158L436.436 256.173L429.66 252.926Z" fill="#FFC864"></path>
		<path d="M444.58 208.808C444.58 208.808 438.06 211.41 436.158 215.473C434.277 219.537 431.413 246.777 430.28 249.572C429.147 252.367 428.292 254.582 428.292 254.582C428.292 254.582 431.584 257.377 434.897 257.57C438.21 257.764 444.58 208.808 444.58 208.808Z" fill="#FFDD90"></path>
		<path d="M449.966 206.465C449.966 206.465 443.19 223.299 442.998 226.718C442.806 230.136 442.207 282.467 442.207 282.467C442.207 282.467 442.613 284.875 438.018 283.865C433.422 282.854 432.246 281.865 432.246 281.865C432.246 281.865 436.628 249.572 435.431 238.349C434.234 227.126 444.601 208.808 444.601 208.808L449.966 206.465Z" fill="#FFDD90"></path>
		<path d="M419.186 361.91L423.162 362.039C423.867 362.06 424.551 361.759 425 361.2C427.672 357.954 436.97 345.785 442.571 327.875C442.72 327.381 442.891 326.886 443.062 326.392C446.653 315.835 454.134 302.57 458.067 290.573C458.687 288.659 459.264 286.853 459.756 285.155C459.927 284.617 460.077 284.08 460.226 283.542L456.037 280.36C456.037 280.36 443.468 300.807 439.599 320.071C436.201 336.798 422.67 356.922 419.186 361.91Z" fill="#1E3D70"></path>
		<path d="M455.588 321.855C455.524 330.713 455.93 350.45 456.999 360.104C457.106 360.985 457.832 361.652 458.73 361.652H461.701C462.941 361.652 463.881 361.652 464.501 361.63C465.036 361.63 465.506 361.243 465.591 360.706C468.541 345.613 470.657 333.078 472.196 322.264C473.479 313.191 474.633 305.429 475.509 298.743C476.407 292.013 477.027 286.38 477.241 281.607C477.284 280.855 477.305 280.124 477.305 279.414C477.326 278.705 477.326 278.017 477.326 277.329L452.788 274.921C453.108 291.347 455.631 316.416 455.588 321.855Z" fill="#2A4E96"></path>
		<path d="M461.701 361.652C462.834 361.652 463.689 361.652 464.309 361.63C464.972 361.63 465.527 361.157 465.656 360.512C468.584 345.505 470.679 333.035 472.218 322.264C473.5 313.191 474.654 305.429 475.531 298.743C476.429 292.013 477.048 286.38 477.262 281.607L468.263 286.939C468.263 286.939 474.013 288.982 471.812 304.419C469.61 319.856 464.758 359.48 461.701 361.652Z" fill="#1E3D70"></path>
		<path d="M460.547 281.457C460.547 281.457 462.278 287.735 468.263 286.939C474.248 286.144 482.756 282.532 482.756 282.532C482.756 282.532 480.191 274.405 477.027 263.741C473.18 250.819 468.413 234.157 466.169 223.665C465.549 220.719 465.1 218.268 464.95 216.505L459.991 206.83C459.991 206.83 452.595 223.536 452.189 227.75C451.762 231.921 460.547 281.457 460.547 281.457Z" fill="#FFDD90"></path>
		<path d="M466.511 227.083L459.97 206.787C459.991 206.787 468.242 209.26 472.389 211.367C472.389 211.367 474.975 214.742 476.6 222.504C476.6 222.504 478.288 241.144 474.505 247.96C474.505 247.96 462.535 250.368 443.404 243.746V239.338C443.404 239.338 464.33 240.435 468.627 240.951L466.511 227.083Z" fill="#FFC864"></path>
		<path d="M460.803 236.543C461.081 243.359 462.663 256.603 476.877 263.676C476.92 263.698 476.963 263.719 476.984 263.741C473.137 250.819 468.37 234.157 466.126 223.665C463.539 227.578 460.654 232.781 460.803 236.543Z" fill="#FFC864"></path>
		<path d="M459.97 206.809C459.97 206.809 472.111 207.669 475.039 214.226C477.968 220.784 478.887 242.563 475.167 248.992C475.167 248.992 470.037 250.454 460.974 248.755C460.868 248.734 460.761 248.712 460.632 248.691C460.632 248.691 457.747 241.574 460.333 240.177C460.333 240.177 467.985 240.585 467.173 238.048C466.361 235.511 459.97 206.809 459.97 206.809Z" fill="#FFDD90"></path>
		<path d="M429.532 242.069L429.895 243.23L449.817 236.995C449.817 236.995 450.073 236.694 449.945 236.285C449.795 235.834 449.453 235.834 449.453 235.834L429.532 242.069Z" fill="#A9453D"></path>
		<path d="M428.078 243.165L429.532 242.069L429.874 243.23L428.078 243.165Z" fill="#A9453D"></path>
		<path d="M424.915 269.438C424.915 269.438 419.87 272.255 419.186 274.383C418.524 276.533 418.973 281.005 419.785 280.941C420.597 280.876 421.794 276.125 422.457 275.781C423.119 275.437 424.06 274.448 424.06 275.179C424.06 275.91 423.397 277.243 423.718 277.458C424.06 277.651 425.107 275.587 425.855 275.179C426.582 274.77 426.903 271.481 427.608 270.578C428.313 269.675 424.915 269.438 424.915 269.438Z" fill="#FFC864"></path>
		<path d="M443.404 239.338C443.404 239.338 438.894 236.543 436.992 236.973C435.089 237.403 430.259 240.929 432.588 241.682C434.918 242.434 436.799 241.639 437.697 242.198C438.595 242.757 439.257 243.767 443.426 243.746C447.594 243.724 443.404 239.338 443.404 239.338Z" fill="#FFC864"></path>
		<g opacity="0.6">
			<g opacity="0.6">
				<path opacity="0.6" d="M224.524 371.778H224.46C224.011 371.778 223.669 371.413 223.669 370.983L224.866 319.254L228.372 318.845L225.401 370.983C225.337 371.413 224.973 371.778 224.524 371.778Z" fill="#77A4E5"></path>
			</g>
			<g opacity="0.6">
				<path opacity="0.6" d="M204.154 371.778H204.09C203.641 371.778 203.299 371.413 203.299 370.983L204.496 319.254L208.001 318.845L205.03 370.983C204.966 371.413 204.603 371.778 204.154 371.778Z" fill="#77A4E5"></path>
			</g>
			<g opacity="0.6">
				<path opacity="0.6" d="M260.37 371.778H260.434C260.883 371.778 261.225 371.413 261.225 370.983L260.028 319.254L256.523 318.845L259.494 370.983C259.537 371.413 259.921 371.778 260.37 371.778Z" fill="#77A4E5"></path>
			</g>
			<path opacity="0.6" d="M201.846 316.029V280.575C201.846 274.34 206.869 269.288 213.068 269.288H238.461C244.66 269.288 249.683 274.34 249.683 280.575V317.383L201.846 316.029Z" fill="#77A4E5"></path>
			<path opacity="0.6" d="M254.236 321.619H205.201C203.342 321.619 201.824 320.092 201.824 318.222V316.007H254.214V321.619H254.236Z" fill="#77A4E5"></path>
			<path opacity="0.6" d="M260.114 321.619H223.028C221.66 321.619 220.527 320.501 220.527 319.103V318.523C220.527 317.147 221.639 316.007 223.028 316.007H260.114C261.482 316.007 262.615 317.125 262.615 318.523V319.103C262.615 320.501 261.482 321.619 260.114 321.619Z" fill="#77A4E5"></path>
		</g>
		<path d="M287.858 351.138C288.222 352.922 290.744 352.621 293.565 351.933C296.387 351.245 295.724 352.062 299.721 351.611C303.719 351.159 304.958 349.654 305.065 349.052C305.172 348.515 303.184 348.321 301.068 348.085C300.79 348.063 300.534 348.02 300.256 347.977C297.862 347.676 296.088 346.107 293.907 344.838C291.834 343.634 288.756 338.689 288.756 338.689L283.241 339.119C283.241 339.119 286.127 343.527 287.238 345.462C287.901 346.601 287.858 348.085 287.773 349.246C287.773 349.869 287.73 350.514 287.858 351.138Z" fill="#FFC864"></path>
		<path d="M293.566 351.933C296.387 351.245 295.724 352.062 299.721 351.611C303.719 351.159 304.958 349.654 305.065 349.052C305.172 348.515 303.184 348.321 301.068 348.085L301.047 348.128C301.047 348.128 298.631 349.848 295.297 349.934C292.582 349.998 289.697 349.224 287.816 349.246C287.773 349.869 287.73 350.514 287.858 351.138C288.222 352.922 290.744 352.621 293.566 351.933Z" fill="#233862"></path>
		<path d="M240.534 359.114C239.444 360.555 241.325 362.275 243.719 363.93C246.113 365.586 245.044 365.629 248.037 368.381C251.029 371.133 252.953 371.025 253.487 370.724C253.958 370.445 252.782 368.832 251.564 367.069C251.414 366.854 251.264 366.618 251.093 366.403C249.725 364.382 249.725 362.038 249.234 359.544C248.763 357.179 252.611 348.493 252.611 348.493L246.455 347.719C246.455 347.719 245.643 352.965 244.959 355.072C244.553 356.319 242.843 357.136 241.924 357.824C241.432 358.211 240.919 358.598 240.534 359.114Z" fill="#FFC864"></path>
		<path d="M243.719 363.93C246.092 365.607 245.044 365.629 248.037 368.381C251.029 371.133 252.953 371.025 253.487 370.724C253.958 370.445 252.782 368.832 251.564 367.069L251.521 367.091C251.521 367.091 248.657 366.403 246.37 363.952C244.51 361.931 243.185 359.243 241.924 357.846C241.432 358.233 240.919 358.62 240.534 359.136C239.444 360.555 241.346 362.275 243.719 363.93Z" fill="#233862"></path>
		<path d="M265.693 314.739L260.071 329.961L252.718 349.848C252.718 349.848 250.73 350.042 248.806 349.483C247.054 348.967 245.023 347.634 245.023 347.634C245.023 347.634 247.054 326.284 250.858 314.029C251.842 310.89 252.932 308.332 254.129 306.913C260.071 299.904 265.693 314.739 265.693 314.739Z" fill="#163560"></path>
		<path d="M259.985 290.573C256.309 289.369 245.194 290.1 234.635 292.164L233.01 289.326L210.203 287.541C210.203 287.541 202.679 304.333 206.804 315.018C207.403 316.588 208.621 317.598 210.673 317.641H211.015C211.015 317.641 224.588 317.641 228.992 317.641C240.342 317.641 252.996 309.794 254.642 309.471C257.313 308.934 258.404 314.33 261.075 319.985C263.747 325.639 286.277 345.054 286.277 345.054C286.277 345.054 289.739 345.097 291.171 344.559C292.71 343.979 293.266 343.226 293.266 343.226C293.266 343.226 268.3 293.26 259.985 290.573Z" fill="#2A4E96"></path>
		<path d="M225.016 219.881C221.81 219.107 217.449 220.01 216.722 220.096C208.066 221.106 206.12 234.651 206.762 238.435C207.959 245.401 204.624 247.379 200.648 252.948C192.676 264.128 198.19 273.351 204.667 275.63C208.557 277.006 213.858 273.265 213.858 273.265C213.965 273.308 227.624 260.172 234.399 253.786C245.792 249.078 233.202 221.837 225.016 219.881Z" fill="#233862"></path>
		<path d="M226.876 251.786C226.918 251.808 223.349 254.151 220.442 253.657C217.706 253.205 214.82 249.615 214.841 249.593C215.953 249.249 216.915 247.959 216.231 241.273L216.744 241.316L225.486 242.154C225.486 242.154 225.572 244.885 225.807 247.443C226.042 249.572 226.363 251.593 226.876 251.786Z" fill="#FFC864"></path>
		<path d="M225.508 242.155C225.508 242.155 225.593 244.885 225.828 247.444C221.019 247.788 218.048 243.638 216.765 241.316L225.508 242.155Z" fill="#FFC864"></path>
		<path d="M227.346 244.412C227.346 244.412 216.017 245.745 215.312 238.629C214.606 231.512 212.661 226.911 219.843 225.75C227.046 224.589 228.714 227.169 229.547 229.491C230.381 231.813 230.274 243.875 227.346 244.412Z" fill="#FFC864"></path>
		<path d="M228.179 225.836C228.179 225.836 222.707 233.705 218.069 235.425C213.431 237.145 211.229 236.07 211.229 236.07C211.229 236.07 213.452 232.995 214.179 228.781C214.393 227.534 215.248 226.502 216.445 226.094C219.779 224.911 226.192 223.105 228.179 225.836Z" fill="#233862"></path>
		<path d="M223.669 226.416C223.669 226.416 226.598 228.093 227.752 229.598C228.885 231.039 230.082 234.887 229.911 236.586C229.911 236.586 231.749 228.502 228.799 225.556C225.679 222.46 223.669 226.416 223.669 226.416Z" fill="#233862"></path>
		<path d="M235.596 270.642C235.254 293.647 235.511 288.852 233.01 291.024C232.412 291.54 230.702 291.862 228.479 292.013C221.468 292.486 209.134 291.325 208.664 290.013C207.039 285.498 208.194 284.101 206.847 277.199C206.697 276.468 206.527 275.673 206.334 274.813C205.201 270.061 204.111 268.449 208.108 260.838C211.721 253.936 215.632 248.411 215.974 248.626C225.529 254.323 226.149 249.443 226.149 249.443C226.149 249.443 235.746 259.419 235.596 270.642Z" fill="white"></path>
		<path d="M260.071 329.961L252.568 350.665C252.568 350.665 249.875 351.547 247.909 351.267C245.899 350.966 244.809 349.87 244.809 349.87C244.809 349.87 247.096 326.284 250.901 314.029L260.071 329.961Z" fill="#2A4E96"></path>
		<path d="M226.127 249.421C226.127 249.421 235.96 251.098 237.114 255.355C238.268 259.612 246.712 283.069 246.712 283.069C246.712 283.069 240.064 285.541 237.755 283.219C235.447 280.897 229.718 261.676 229.718 261.676L226.127 249.421Z" fill="white"></path>
		<path d="M228.457 292.013C221.446 292.486 209.113 291.325 208.643 290.014C207.018 285.499 208.172 284.101 206.826 277.2L210.117 269.675C210.117 269.675 209.647 278.296 212.789 281.113C215.91 283.929 225.593 286.531 227.111 288.874C227.837 289.971 228.329 291.11 228.457 292.013Z" fill="#DFEBFD"></path>
		<path d="M229.034 287.09C229.034 287.09 231.129 288.896 231.728 289.046C232.326 289.197 232.668 289.046 232.668 289.046L231.151 287.262L229.034 287.09Z" fill="#FFC864"></path>
		<path d="M228.201 284.961L233.48 286.337C233.48 286.337 233.352 286.724 232.754 286.81C232.155 286.896 230.552 286.659 230.552 286.659L228.201 284.961Z" fill="#FFC864"></path>
		<path d="M219.245 287.906C219.245 287.906 226.79 284.531 228.222 284.982C229.654 285.434 233.267 287.369 233.844 288.186C234.421 289.003 230.873 288.078 229.761 288.014C229.034 287.971 227.389 288.96 226.555 289.433C223.071 291.432 220.655 291.26 220.655 291.26L219.245 287.906Z" fill="#FFC864"></path>
		<path d="M215.953 248.604C215.953 248.604 205.265 250.625 203.299 253.592C198.981 260.085 189.79 287.025 194.941 290.637C200.734 294.7 221.318 291.69 221.318 291.69C221.318 291.69 222.002 288.465 221.04 286.917C220.078 285.369 204.603 282.832 203.876 282.123C203.171 281.413 210.93 271.007 210.117 269.008C207.467 262.644 215.953 248.604 215.953 248.604Z" fill="white"></path>
		<path d="M258.168 286.746C258.168 286.746 265.65 288.767 266.419 289.949C267.189 291.11 268.685 294.679 268.621 295.625C268.557 296.55 266.526 293.776 265.757 293.067C265.265 292.615 263.469 292.336 262.593 292.185C260.37 291.82 259.301 290.809 258.468 290.293C257.912 289.949 257.228 290.014 257.228 290.014L258.168 286.746Z" fill="#FFC864"></path>
		<path d="M265.778 291.992C265.778 291.992 266.227 294.55 266.569 295.002C266.911 295.453 267.232 295.561 267.232 295.561L267.189 293.346L265.778 291.992Z" fill="#FFC864"></path>
		<path d="M266.419 289.949L269.454 294.099C269.454 294.099 269.134 294.292 268.642 294.013C268.151 293.733 267.125 292.594 267.125 292.594L266.419 289.949Z" fill="#FFC864"></path>
		<path d="M258.468 290.293C258.468 290.293 259.152 291.992 260.541 292.594C261.931 293.196 262.935 294.12 263.17 293.776C263.384 293.454 262.123 291.734 262.123 291.734L258.468 290.293Z" fill="#FFC864"></path>
		<path d="M244.724 277.522L260.456 287.519C260.456 287.519 258.81 289.734 258.254 289.949C255.347 291.024 242.244 289.992 237.755 283.219L244.724 277.522Z" fill="white"></path>
		<path d="M238.482 288.379C239.401 288.379 248.635 287.734 248.635 287.734C248.635 287.734 248.379 289.39 248.935 290.25L239.936 291.991L238.097 291.454L238.482 288.379Z" fill="#F9DDBF"></path>
		<path d="M223.092 289.884L238.482 288.401C238.482 288.401 237.948 291.26 239.957 292.013L222.985 293.26C222.985 293.26 221.617 291.303 223.092 289.884Z" fill="#FFDD90"></path>
		<path d="M248.614 287.949L238.204 288.745C238.204 288.745 238.29 288.379 238.482 288.379C238.675 288.379 248.828 287.627 248.828 287.627L248.785 287.906L248.614 287.949Z" fill="#FFDD90"></path>
		<path d="M239.957 291.991L249.106 290.25L249.041 290.013L239.273 291.884L239.957 291.991Z" fill="#FFDD90"></path>
		<path d="M133.338 371.692H133.253C132.761 371.692 132.377 371.284 132.377 370.789L133.702 313.019L137.592 312.567L134.279 370.789C134.236 371.305 133.83 371.692 133.338 371.692Z" fill="#77A4E5"></path>
		<path d="M110.724 371.692H110.638C110.147 371.692 109.762 371.284 109.762 370.789L111.087 313.019L114.977 312.567L111.664 370.789C111.621 371.305 111.215 371.692 110.724 371.692Z" fill="#77A4E5"></path>
		<path d="M173.117 371.692H173.203C173.694 371.692 174.079 371.284 174.079 370.789L172.754 313.019L168.864 312.567L172.177 370.789C172.198 371.305 172.626 371.692 173.117 371.692Z" fill="#77A4E5"></path>
		<path d="M108.159 309.45V269.868C108.159 262.902 113.738 257.248 120.621 257.248H148.814C155.697 257.248 161.276 262.902 161.276 269.868V310.955L108.159 309.45Z" fill="#77A4E5"></path>
		<path d="M166.32 315.685H111.899C109.826 315.685 108.137 313.986 108.137 311.9V309.428H166.299V315.685H166.32Z" fill="#77A4E5"></path>
		<path d="M172.839 315.685H131.671C130.132 315.685 128.892 314.438 128.892 312.89V312.223C128.892 310.675 130.132 309.428 131.671 309.428H172.818C174.357 309.428 175.597 310.675 175.597 312.223V312.89C175.597 314.438 174.357 315.685 172.839 315.685Z" fill="#77A4E5"></path>
		<path d="M150.695 242.628C150.695 242.628 148.344 244.649 147.831 249.873C147.446 253.851 150.182 284.703 152.255 287.154C158.069 294.056 165.337 291.132 168.18 292.185L170.873 289.756C170.873 289.756 161.425 282.747 160.698 280.446C157.92 271.653 159.63 245.96 150.695 242.628Z" fill="#F9DDBF"></path>
		<path d="M149.006 217.473C149.006 217.473 149.156 211.818 141.739 210.7C134.322 209.582 132.27 211.345 131.009 213.237C129.747 215.151 127.375 222.912 127.61 226.008C127.845 229.104 136.31 232.931 136.181 234.737C136.032 236.522 149.006 217.473 149.006 217.473Z" fill="#163560"></path>
		<path d="M183.42 366.812C183.185 368.725 185.771 369.284 188.785 369.564C191.799 369.822 190.859 370.424 194.984 371.348C199.109 372.273 200.798 371.176 201.119 370.617C201.396 370.123 199.515 369.263 197.485 368.274C197.228 368.145 196.972 368.037 196.715 367.908C194.45 366.79 193.231 364.619 191.5 362.576C189.854 360.641 188.443 354.621 188.443 354.621L182.864 353.181C182.864 353.181 184.254 358.599 184.724 360.921C185.002 362.275 184.467 363.759 183.997 364.898C183.762 365.5 183.506 366.124 183.42 366.812Z" fill="#FFC864"></path>
		<path d="M188.785 369.542C191.799 369.8 190.859 370.402 194.984 371.327C199.109 372.251 200.798 371.155 201.119 370.596C201.396 370.101 199.515 369.241 197.485 368.252L197.442 368.295C197.442 368.295 194.492 369.198 191.158 368.145C188.443 367.285 185.857 365.5 183.976 364.898C183.719 365.522 183.484 366.145 183.399 366.812C183.185 368.725 185.771 369.284 188.785 369.542Z" fill="#233862"></path>
		<path d="M141.611 288.831C141.611 288.831 178.953 292.723 185.109 298.485C191.265 304.225 190.175 357.803 190.175 357.803C189.213 358.814 188.507 358.771 186.99 358.663C185.536 358.556 182.565 357.287 182.565 357.287C182.565 357.287 174.571 330.993 174.464 324.887C174.357 318.802 173.096 308.461 170.552 307.859C168.009 307.257 137.784 310.654 134.471 301.065C131.158 291.454 136.652 283.564 136.652 283.564L141.611 288.831Z" fill="#FFC864"></path>
		<path d="M124.169 298.485C125.772 299.56 128.657 301.237 133.488 301.409C142.145 301.731 152.939 300.678 155.055 298.678C155.611 298.162 155.868 297.302 155.953 296.206C156.188 292.873 154.607 287.369 153.538 282.833C152.854 279.887 152.384 277.329 152.768 276.017C153.944 272.04 157.578 263.956 157.898 261.311C158.219 258.645 155.055 244.412 150.695 242.649C146.334 240.886 129.512 242.649 129.512 242.649C122.929 243.982 122.651 258.086 124.853 270.083C124.917 270.384 124.959 270.707 125.024 271.008C127.375 283.177 119.68 295.453 124.169 298.485Z" fill="#F9DDBF"></path>
		<path d="M145.907 245.229C145.779 246.003 143.684 247.25 139.195 246.067C134.877 244.928 134.364 243.509 134.364 242.584C134.364 241.488 136.245 240.004 136.224 233.21L136.737 233.318L145.437 235.059C145.437 235.059 145.244 237.811 145.223 240.391C145.202 242.541 146.099 243.939 145.907 245.229Z" fill="#FFC864"></path>
		<path d="M145.415 235.017C145.415 235.017 145.223 237.769 145.202 240.349C140.328 240.22 137.763 235.748 136.716 233.275L145.415 235.017Z" fill="#FFC864"></path>
		<path d="M147.04 237.489C147.04 237.489 135.54 237.683 135.519 230.48C135.519 223.278 134.022 218.44 141.375 218.01C148.728 217.58 150.161 220.332 150.738 222.74C151.315 225.127 150.032 237.253 147.04 237.489Z" fill="#FFC864"></path>
		<path d="M146.612 217.817C146.612 217.817 143.47 226.266 138.618 227.535C133.787 228.782 131.693 227.492 131.693 227.492C131.693 227.492 135.39 224.525 136.16 219.365C136.181 219.343 144.24 213.796 146.612 217.817Z" fill="#163560"></path>
		<path d="M145.843 218.504C145.843 218.504 148.194 220.396 148.771 222.224C149.348 224.051 149.605 227.835 150.695 227.706C150.695 227.706 153.068 221.966 150.396 218.698C147.553 215.258 145.843 218.504 145.843 218.504Z" fill="#163560"></path>
		<path d="M155.376 368.381C155.355 370.316 157.984 370.574 161.019 370.488C164.054 370.402 163.178 371.112 167.367 371.542C171.557 371.972 173.117 370.682 173.374 370.101C173.609 369.564 171.621 368.94 169.505 368.209C169.248 368.123 168.971 368.016 168.714 367.93C166.341 367.07 164.888 365.07 162.943 363.243C161.105 361.523 165.166 353.181 165.166 353.181L159.843 350.536C159.843 350.536 158.839 356.492 157.535 361.695C157.193 363.049 156.103 365.264 155.761 366.425C155.568 367.048 155.397 367.693 155.376 368.381Z" fill="#FFC864"></path>
		<path d="M124.404 297.044C126.007 298.119 128.657 301.237 133.509 301.409C141.482 299.581 150.567 297.452 155.975 296.184C156.21 292.851 154.628 287.348 153.559 282.811C147.254 284.746 137.891 278.146 134.728 275.544C131.415 272.814 131.522 263.698 131.522 263.698L124.853 270.062C124.917 270.363 124.959 270.685 125.024 270.986C127.375 283.177 119.894 294.034 124.404 297.044Z" fill="#FFE6A3"></path>
		<path d="M161.019 370.488C164.054 370.402 163.178 371.112 167.367 371.542C171.557 371.972 173.117 370.682 173.374 370.101C173.609 369.564 171.621 368.94 169.505 368.209L169.484 368.252C169.484 368.252 166.662 369.499 163.221 368.833C160.421 368.295 157.663 366.833 155.739 366.446C155.568 367.091 155.376 367.736 155.376 368.424C155.355 370.295 157.984 370.574 161.019 370.488Z" fill="#233862"></path>
		<path d="M133.552 291.11C143.043 290.831 171.343 293.11 176.794 297.238C183.484 302.312 164.354 357.223 164.354 357.223C164.354 357.223 162.131 357.438 161.425 357.352C158.39 357.008 157.15 356.083 157.15 356.083C157.15 356.083 157.214 323.769 159.459 317.577C161.532 311.858 162.793 309.837 160.207 309.493C157.62 309.149 125.323 313.298 122.63 303.494C120.535 295.84 123.634 288.745 123.634 288.745C123.634 288.745 124.81 291.368 133.552 291.11Z" fill="#FFDD90"></path>
		<path d="M129.512 242.628C129.512 242.628 122.929 243.187 122.416 248.433C122.031 252.41 119.167 280.597 121.219 283.048C127.033 289.949 146.377 291.411 149.22 292.465L150.011 289.197C150.011 289.197 129.341 278.726 129.662 276.34C129.983 273.975 135.818 241.682 129.512 242.628Z" fill="#F9DDBF"></path>
		<path d="M134.6 213.538C134.6 213.538 135.07 210.528 130.902 209.733C126.734 208.959 126.669 217.86 126.221 219.988C125.772 222.138 126.883 223.428 128.465 223.557C130.047 223.686 134.6 213.538 134.6 213.538Z" fill="#163560"></path>
		<path d="M150.225 289.068C150.225 289.068 156.103 287.391 157.514 287.778C158.924 288.165 163.712 291.368 163.05 292.228C162.366 293.088 158.133 291.712 156.188 291.97C154.243 292.228 152.726 293.196 151.336 292.981C149.925 292.766 148.472 292.228 148.472 292.228L150.225 289.068Z" fill="#FFC864"></path>
		<path d="M150.225 289.068C150.225 289.068 153.11 287.584 153.923 286.724C154.029 286.617 154.2 286.638 154.286 286.767C154.5 287.111 154.713 287.778 153.709 288.466C152.255 289.412 150.225 289.068 150.225 289.068Z" fill="#FFC864"></path>
		<path d="M170.852 289.777C170.852 289.777 176.965 290.121 178.162 290.938C179.359 291.777 182.864 296.356 181.945 296.958C181.026 297.56 177.478 294.873 175.554 294.486C173.63 294.099 171.899 294.529 170.638 293.862C169.377 293.196 168.18 292.207 168.18 292.207L170.852 289.777Z" fill="#FFC864"></path>
		<path d="M128.914 372.186H104.055C102.858 370.724 103.307 365.306 103.478 363.543C103.52 363.178 103.542 362.984 103.542 362.984C103.542 362.984 112.028 356.169 113.182 361.393C113.225 361.565 113.267 361.716 113.31 361.866C114.785 366.747 121.368 368.983 125.173 369.606C127.653 369.993 128.572 371.283 128.914 372.186Z" fill="#1B3051"></path>
		<path d="M61.1123 290.981C62.0101 290.981 103.67 298.85 110.553 307.428C113.994 311.707 114.507 361.221 114.507 361.221C114.507 361.221 110.253 366.532 101.041 363.457C101.041 363.457 94.2863 329.595 94.7993 319.318C94.9276 316.48 66.3278 318.909 61.091 317.533C55.8541 316.179 43.0719 304.719 45.8934 299.129C48.7362 293.561 61.1123 290.981 61.1123 290.981Z" fill="#233862"></path>
		<path d="M91.2725 288.659C91.2725 288.659 93.9443 290.981 96.6803 291.626C98.2407 291.991 99.7583 292.421 100.656 292.83C103.136 293.969 107.817 299.065 107.389 299.581C106 301.215 100.357 296.979 99.2667 297.28C98.1979 297.581 101.041 300.032 99.9079 300.699C99.3094 301.043 98.1979 298.914 97.1719 298.613C95.7612 298.205 94.8421 296.076 94.4146 295.926C93.6023 295.646 90.1609 292.55 90.1609 292.55L91.2725 288.659Z" fill="#FFC864"></path>
		<path d="M139.901 372.186H115.041C113.844 370.724 114.293 365.306 114.464 363.543C114.507 363.178 114.528 362.984 114.528 362.984C114.528 362.984 123.014 356.169 124.169 361.393C124.211 361.565 124.254 361.716 124.297 361.866C125.772 366.747 132.355 368.983 136.16 369.606C138.639 369.993 139.559 371.283 139.901 372.186Z" fill="#1E3C68"></path>
		<path d="M73.403 290.981C74.3007 290.981 115.961 298.85 122.843 307.428C126.285 311.707 126.798 361.221 126.798 361.221C126.798 361.221 122.544 366.532 113.331 363.457C113.331 363.457 106.577 329.595 107.09 319.318C107.218 316.48 78.6185 318.909 73.3816 317.533C68.1447 316.179 55.3625 304.719 58.184 299.129C61.0055 293.561 73.403 290.981 73.403 290.981Z" fill="#2B478B"></path>
		<path d="M70.7952 240.069C67.8027 239.811 64.6606 239.015 61.946 238.134C58.5474 237.016 55.8114 235.404 57.5855 232.286C59.21 229.405 61.8391 222.977 61.6681 217.666L67.9951 222.783L72.2915 226.266C72.2915 226.266 72.2701 228.308 71.7999 231.92C71.7144 232.565 71.6075 233.275 71.5006 234.049C71.4151 234.651 71.693 235.275 72.206 235.597C72.2487 235.619 72.2701 235.64 72.3129 235.661C74.3862 236.973 73.2961 240.262 70.7952 240.069Z" fill="#FFC864"></path>
		<path d="M72.2487 225.406C72.2487 225.406 72.4624 226.159 72.099 228.911C68.2729 228.287 64.7033 225.213 64.7033 225.213C66.6484 224.675 67.3538 222.568 68.8073 222.762L72.2487 225.406Z" fill="#FFC864"></path>
		<path d="M75.797 226.03C75.797 226.03 61.091 228.481 59.7016 219.257C58.3122 210.012 55.4907 204.1 64.8316 202.143C74.1725 200.187 76.5237 203.433 77.7421 206.4C78.9177 209.367 79.5804 225.148 75.797 226.03Z" fill="#FFC864"></path>
		<path d="M79.8796 202.315C80.5208 204.551 78.8108 207.26 75.9893 208.142C71.7785 209.475 72.6976 214.656 70.8166 214.592C68.9142 214.527 68.1447 211.603 66.4561 213.925C65.0026 215.903 67.6531 218.268 67.4821 219.365C67.1615 221.235 64.2545 225.062 61.6253 224.869C58.9962 224.675 54.08 212.119 55.0632 208.228C56.0465 204.336 59.9795 200.251 63.6987 199.671C67.418 199.112 72.5907 200.724 73.7877 200.724C74.9634 200.745 79.5376 201.111 79.8796 202.315Z" fill="#2B478B"></path>
		<path d="M83.5347 288.208C83.2782 290.336 82.8507 291.798 82.1453 292.271C79.9437 293.755 77.0367 295.582 73.7877 297.41C62.2666 303.86 46.5132 310.095 43.3069 299.194C39.5449 286.38 42.0244 262.322 45.7009 247.358C47.8171 238.736 53.7166 229.706 57.6709 229.728C64.4468 229.749 74.1724 231.534 78.1054 241.295C79.6231 245.079 81.8674 258.172 83.0003 270.169C83.7057 277.307 84.0049 284.058 83.5347 288.208Z" fill="white"></path>
		<path d="M57.0083 229.792L58.5473 226.309C58.5473 226.309 72.1418 227.707 74.4503 235.554C74.4503 235.576 63.9338 229.964 57.0083 229.792Z" fill="#DFEBFD"></path>
		<path d="M83.5347 288.208C83.2782 290.336 82.8507 291.798 82.1453 292.271C79.9437 293.755 77.0367 295.582 73.7877 297.41C70.4105 295.346 63.4422 290.401 61.8177 284.574C59.7016 276.963 61.1764 267.589 61.1764 267.589L83.5347 288.208Z" fill="#DFEBFD"></path>
		<path d="M59.7657 241.531C59.7657 241.531 60.9413 274.276 62.8009 280.747C65.9644 291.777 94.7352 295.711 94.7352 295.711C94.7352 295.711 96.4238 293.776 95.6757 290.573C95.6757 290.573 78.4688 276.92 77.9558 274.34C77.4428 271.739 81.6964 254.152 76.8443 247.745C71.9922 241.316 63.0361 235.769 59.7657 241.531Z" fill="white"></path>
		<path d="M23.6847 371.886H23.5992C22.8297 371.864 22.2312 371.241 22.2953 370.51L27.4681 318.566L31.9782 318.974L24.5611 371.198C24.497 371.585 24.1122 371.886 23.6847 371.886Z" fill="#77A4E5"></path>
		<path d="M50.2966 371.886H50.2111C49.4416 371.864 48.8431 371.241 48.9072 370.51L54.08 318.566L58.5901 318.974L51.173 371.198C51.1088 371.585 50.7241 371.886 50.2966 371.886Z" fill="#77A4E5"></path>
		<path d="M100.271 371.886H100.357C101.126 371.864 101.725 371.241 101.661 370.51L96.488 318.566L91.9778 318.974L99.395 371.198C99.4591 371.585 99.8225 371.886 100.271 371.886Z" fill="#77A4E5"></path>
		<path d="M25.1382 311.191L20.2219 267.804C19.5807 261.548 21.6541 255.42 30.6316 254.947L46.4063 253.98C55.7686 253.593 59.9794 261.419 61.1551 267.439L70.5173 315.126L25.1382 311.191Z" fill="#77A4E5"></path>
		<path d="M27.7888 319.318H97.8132C99.224 319.318 100.378 318.157 100.378 316.738V313.578C100.378 312.159 99.224 310.998 97.8132 310.998H25.2238V316.738C25.2238 318.157 26.378 319.318 27.7888 319.318Z" fill="#77A4E5"></path>
		<path d="M27.2116 319.318H68.5722C69.6624 319.318 70.5601 318.415 70.5601 317.319V312.997C70.5601 311.901 69.6624 310.998 68.5722 310.998H25.2238V317.319C25.2238 318.415 26.1215 319.318 27.2116 319.318Z" fill="#77A4E5"></path>
		<path d="M136.117 179.418H111.878C110.766 179.418 109.847 178.493 109.847 177.375V153.833C109.847 152.715 110.766 151.79 111.878 151.79H136.117C137.229 151.79 138.148 152.715 138.148 153.833V177.375C138.148 178.493 137.229 179.418 136.117 179.418Z" fill="#77A4E5"></path>
		<path d="M135.07 178.214H112.925C111.899 178.214 111.087 177.375 111.087 176.365V154.865C111.087 153.833 111.921 153.016 112.925 153.016H135.07C136.096 153.016 136.908 153.854 136.908 154.865V176.365C136.908 177.375 136.096 178.214 135.07 178.214Z" fill="#DFEBFD"></path>
		<path d="M123.998 156.111C124.316 156.111 124.575 155.852 124.575 155.531C124.575 155.21 124.316 154.95 123.998 154.95C123.679 154.95 123.42 155.21 123.42 155.531C123.42 155.852 123.679 156.111 123.998 156.111Z" fill="#77A4E5"></path>
		<path d="M129.17 156.912C129.324 156.631 129.224 156.278 128.945 156.122C128.667 155.966 128.315 156.067 128.161 156.348C128.006 156.628 128.106 156.981 128.385 157.137C128.663 157.293 129.015 157.192 129.17 156.912Z" fill="#77A4E5"></path>
		<path d="M132.817 160.579C133.085 160.405 133.162 160.046 132.989 159.776C132.816 159.507 132.459 159.429 132.191 159.603C131.923 159.777 131.846 160.136 132.019 160.406C132.192 160.675 132.549 160.753 132.817 160.579Z" fill="#77A4E5"></path>
		<path d="M134.193 165.765C134.512 165.765 134.771 165.505 134.771 165.184C134.771 164.864 134.512 164.604 134.193 164.604C133.875 164.604 133.616 164.864 133.616 165.184C133.616 165.505 133.875 165.765 134.193 165.765Z" fill="#77A4E5"></path>
		<path d="M133.17 171.25C133.395 171.023 133.395 170.656 133.17 170.429C132.944 170.202 132.579 170.202 132.354 170.429C132.128 170.656 132.128 171.023 132.354 171.25C132.579 171.477 132.944 171.477 133.17 171.25Z" fill="#77A4E5"></path>
		<path d="M129.483 174.949C129.708 174.723 129.708 174.355 129.483 174.128C129.257 173.902 128.892 173.902 128.667 174.128C128.441 174.355 128.441 174.723 128.667 174.949C128.892 175.176 129.257 175.176 129.483 174.949Z" fill="#77A4E5"></path>
		<path d="M123.998 176.622C124.316 176.622 124.575 176.363 124.575 176.042C124.575 175.721 124.316 175.461 123.998 175.461C123.679 175.461 123.42 175.721 123.42 176.042C123.42 176.363 123.679 176.622 123.998 176.622Z" fill="#77A4E5"></path>
		<path d="M119.604 157.17C119.883 157.015 119.983 156.661 119.828 156.381C119.674 156.101 119.322 156 119.044 156.155C118.765 156.311 118.665 156.665 118.819 156.945C118.974 157.225 119.326 157.326 119.604 157.17Z" fill="#77A4E5"></path>
		<path d="M115.952 160.402C116.125 160.132 116.048 159.773 115.78 159.599C115.512 159.426 115.155 159.503 114.982 159.772C114.81 160.042 114.887 160.401 115.155 160.575C115.422 160.749 115.78 160.671 115.952 160.402Z" fill="#77A4E5"></path>
		<path d="M113.78 165.765C114.099 165.765 114.357 165.505 114.357 165.185C114.357 164.864 114.099 164.604 113.78 164.604C113.462 164.604 113.203 164.864 113.203 165.185C113.203 165.505 113.462 165.765 113.78 165.765Z" fill="#77A4E5"></path>
		<path d="M115.623 171.252C115.848 171.025 115.848 170.658 115.623 170.431C115.398 170.204 115.032 170.204 114.807 170.431C114.581 170.658 114.581 171.025 114.807 171.252C115.032 171.478 115.398 171.478 115.623 171.252Z" fill="#77A4E5"></path>
		<path d="M119.291 174.956C119.517 174.729 119.517 174.362 119.291 174.135C119.066 173.908 118.7 173.908 118.475 174.135C118.25 174.362 118.25 174.729 118.475 174.956C118.7 175.183 119.066 175.183 119.291 174.956Z" fill="#77A4E5"></path>
		<path d="M124.425 165.765C124.744 165.765 125.002 165.505 125.002 165.184C125.002 164.864 124.744 164.604 124.425 164.604C124.106 164.604 123.848 164.864 123.848 165.184C123.848 165.505 124.106 165.765 124.425 165.765Z" fill="#77A4E5"></path>
		<path d="M124.488 157.832H124.34V165.206H124.488V157.832Z" fill="#77A4E5"></path>
		<path d="M128.09 161.91L124.206 164.976L124.497 165.348L128.381 162.282L128.09 161.91Z" fill="#77A4E5"></path>
	</symbol>
	<symbol xmlns="http://www.w3.org/2000/svg" viewBox="0 0 24 24" id="eye">
		<path d="M6.87301 17.129C5.02801 15.819 3.56801 14.115 2.74301 13.039C2.51231 12.742 2.38708 12.3766 2.38708 12.0005C2.38708 11.6244 2.51231 11.259 2.74301 10.962C4.23601 9.013 7.81801 5 12 5C13.876 5 15.63 5.807 17.13 6.874" stroke="currentColor" stroke-width="1.5" stroke-linecap="round" stroke-linejoin="round" fill="transparent"></path>
		<path d="M14.13 9.887C13.8523 9.60467 13.5214 9.38011 13.1565 9.22629C12.7916 9.07246 12.3998 8.99241 12.0038 8.99075C11.6078 8.98909 11.2154 9.06586 10.8491 9.21662C10.4829 9.36738 10.1502 9.58916 9.87016 9.86915C9.5901 10.1492 9.36824 10.4818 9.21739 10.848C9.06654 11.2142 8.98969 11.6066 8.99125 12.0026C8.99282 12.3986 9.07278 12.7904 9.22652 13.1554C9.38026 13.5203 9.60473 13.8512 9.887 14.129M4 20L20 4M10 18.704C10.6492 18.8972 11.3227 18.9969 12 19C16.182 19 19.764 14.987 21.257 13.038C21.4876 12.7407 21.6127 12.3751 21.6125 11.9988C21.6124 11.6226 21.4869 11.2571 21.256 10.96C20.7313 10.2755 20.1684 9.62112 19.57 9" fill="transparent" stroke="currentColor" stroke-width="1.5" stroke-linecap="round" stroke-linejoin="round"></path>
	</symbol>
	<symbol xmlns="http://www.w3.org/2000/svg" viewBox="0 0 24 24" id="eye-visible">
		<path d="M21.257 10.962C21.731 11.582 21.731 12.419 21.257 13.038C19.764 14.987 16.182 19 12 19C7.81801 19 4.23601 14.987 2.74301 13.038C2.51239 12.7411 2.38721 12.3759 2.38721 12C2.38721 11.6241 2.51239 11.2589 2.74301 10.962C4.23601 9.013 7.81801 5 12 5C16.182 5 19.764 9.013 21.257 10.962V10.962Z" stroke="currentColor" stroke-width="1.5" stroke-linecap="round" stroke-linejoin="round" fill="transparent"></path>
		<path d="M12 15C13.6569 15 15 13.6569 15 12C15 10.3431 13.6569 9 12 9C10.3431 9 9 10.3431 9 12C9 13.6569 10.3431 15 12 15Z" stroke="currentColor" stroke-width="1.5" stroke-linecap="round" stroke-linejoin="round" fill="transparent"></path>
	</symbol>
	<symbol xmlns="http://www.w3.org/2000/svg" viewBox="0 0 24 24" id="key">
		<path d="M7 6.51541C7.00019 5.70721 7.24046 4.91387 7.69577 4.21813C8.15107 3.5224 8.80472 2.94977 9.58853 2.55998C10.3723 2.1702 11.2576 1.97753 12.1519 2.00209C13.0462 2.02664 13.9169 2.26752 14.673 2.69959C15.4292 3.13165 16.0431 3.73909 16.4508 4.45851C16.8585 5.17794 17.045 5.983 16.9908 6.78972C16.9367 7.59643 16.6438 8.37524 16.1429 9.04489C15.642 9.71455 14.9513 10.2505 14.1429 10.5969L14.1429 20.0644L12 22L9.85714 20.0644L11.2857 18.774L9.85714 17.4837L11.2857 16.1933L9.85714 14.9029L11.2857 13.6125L9.85714 12.3221L9.85714 10.5969C9.0021 10.2305 8.27972 9.65253 7.77395 8.93003C7.26819 8.20753 6.99981 7.37022 7 6.51541ZM10.5714 5.22502C10.5714 5.56726 10.7219 5.89547 10.9898 6.13746C11.2578 6.37946 11.6211 6.51541 12 6.51541C12.3789 6.51541 12.7422 6.37946 13.0102 6.13746C13.2781 5.89547 13.4286 5.56726 13.4286 5.22502C13.4286 4.88279 13.2781 4.55458 13.0102 4.31259C12.7422 4.07059 12.3789 3.93464 12 3.93464C11.6211 3.93464 11.2578 4.07059 10.9898 4.31259C10.7219 4.55458 10.5714 4.88279 10.5714 5.22502Z" fill="currentColor"></path>
	</symbol>
	<symbol xmlns="http://www.w3.org/2000/svg" viewBox="0 0 24 24" id="spinner">
		<path d="M3 12C3 6.6 6.951 3 11.8254 3C15.7872 3 18.984 5.1015 20.1 8.4M21 12C21 17.4 17.049 21 12.1746 21C8.2119 21 5.016 18.8985 3.9 15.6" stroke="currentColor" stroke-width="2" stroke-linecap="round" stroke-linejoin="round" fill="transparent"></path>
		<path d="M16.5 7.5002L20.1 8.4002L21 4.8002M7.5 16.5002L3.9 15.6002L3 19.2002" stroke="currentColor" stroke-width="2" stroke-linecap="round" stroke-linejoin="round" fill="transparent"></path>
	</symbol>
	<symbol fill="none" xmlns="http://www.w3.org/2000/svg" viewBox="0 0 24 24" id="facebook">
		<g clip-path="url(#clip0_3241_683)">
			<path d="M12 24C18.6274 24 24 18.6274 24 12C24 5.37258 18.6274 0 12 0C5.37258 0 0 5.37258 0 12C0 18.6274 5.37258 24 12 24Z" fill="#3B5998"></path>
			<path d="M15.0168 12.4697H12.8755V20.3142H9.63132V12.4697H8.08838V9.71278H9.63132V7.92876C9.63132 6.65299 10.2373 4.65527 12.9044 4.65527L15.3075 4.66533V7.34136H13.5639C13.2779 7.34136 12.8757 7.48425 12.8757 8.09283V9.71535H15.3002L15.0168 12.4697Z" fill="white"></path>
		</g>
		<defs>
			<clipPath id="clip0_3241_683">
				<rect width="24" height="24" fill="white"></rect>
			</clipPath>
		</defs>
	</symbol>
	<symbol fill="none" xmlns="http://www.w3.org/2000/svg" viewBox="0 0 24 24" id="google">
		<g clip-path="url(#clip0_3241_226)">
			<path d="M5.31891 14.5034L4.4835 17.6221L1.43011 17.6867C0.517594 15.9942 0 14.0577 0 11.9999C0 10.01 0.483938 8.1335 1.34175 6.4812H1.34241L4.06078 6.97958L5.25159 9.68164C5.00236 10.4082 4.86652 11.1882 4.86652 11.9999C4.86661 12.8808 5.02617 13.7247 5.31891 14.5034Z" fill="#FBBB00"></path>
			<path d="M23.7903 9.7583C23.9281 10.4842 24 11.2339 24 12.0001C24 12.8592 23.9097 13.6972 23.7376 14.5056C23.1534 17.2563 21.627 19.6583 19.5125 21.3581L19.5119 21.3574L16.0879 21.1827L15.6034 18.1576C17.0064 17.3348 18.1029 16.0471 18.6805 14.5056H12.2638V9.7583H18.7741H23.7903Z" fill="#518EF8"></path>
			<path d="M19.5119 21.3575L19.5126 21.3581C17.4561 23.0111 14.8438 24.0001 12.0001 24.0001C7.43018 24.0001 3.457 21.4458 1.43018 17.6869L5.31897 14.5037C6.33236 17.2083 8.94138 19.1336 12.0001 19.1336C13.3148 19.1336 14.5465 18.7781 15.6033 18.1577L19.5119 21.3575Z" fill="#28B446"></path>
			<path d="M19.6595 2.76262L15.772 5.94525C14.6782 5.26153 13.3852 4.86656 11.9999 4.86656C8.872 4.86656 6.21419 6.88017 5.25157 9.68175L1.34233 6.48131H1.34167C3.33883 2.63077 7.36211 0 11.9999 0C14.9116 0 17.5812 1.03716 19.6595 2.76262Z" fill="#F14336"></path>
		</g>
		<defs>
			<clipPath id="clip0_3241_226">
				<rect width="24" height="24" fill="white"></rect>
			</clipPath>
		</defs>
	</symbol>
	<symbol fill="none" xmlns="http://www.w3.org/2000/svg" viewBox="0 0 24 24" id="linkedin">
		<g clip-path="url(#clip0_3241_537)">
			<path d="M12 23.999C18.6274 23.999 24 18.6264 24 11.999C24 5.37161 18.6274 -0.000976562 12 -0.000976562C5.37258 -0.000976562 0 5.37161 0 11.999C0 18.6264 5.37258 23.999 12 23.999Z" fill="#007AB9"></path>
			<path d="M19.1699 12.9653V17.9127H16.3016V13.2969C16.3016 12.1379 15.8874 11.3465 14.8489 11.3465C14.0563 11.3465 13.5855 11.8793 13.3776 12.3953C13.3021 12.5797 13.2826 12.8357 13.2826 13.0943V17.9125H10.4141C10.4141 17.9125 10.4526 10.0949 10.4141 9.28563H13.2828V10.5081C13.2771 10.5178 13.2689 10.5272 13.2638 10.5364H13.2828V10.5081C13.664 9.92159 14.3438 9.08306 15.868 9.08306C17.7551 9.08306 19.1699 10.316 19.1699 12.9653ZM7.41332 5.1272C6.43211 5.1272 5.79016 5.77128 5.79016 6.61752C5.79016 7.44578 6.4135 8.10848 7.37567 8.10848H7.39428C8.39475 8.10848 9.0168 7.44578 9.0168 6.61752C8.99776 5.77128 8.39475 5.1272 7.41332 5.1272ZM5.96065 17.9127H8.82813V9.28563H5.96065V17.9127Z" fill="#F1F2F2"></path>
		</g>
		<defs>
			<clipPath id="clip0_3241_537">
				<rect width="24" height="24" fill="white"></rect>
			</clipPath>
		</defs>
	</symbol>
</svg>